# xmcd
#
# Track frame offsets: 
#        150
#        18565
#        38400
#        66070
#        88202
#        114832
#        140395
#        149870
#        171112
#        185227
#        207255
#        236372
#        240870
#        259885
#        284367
#        301720
#
# Disc length: 4206 seconds
#
# Revision: 11
# Processed by: cddbd v1.5.2PL0 Copyright (c) Steve Scherf et al.
# Submitted via: ExactAudioCopy v0.99pb5
#
DISCID=df106c10
DTITLE=Dir en grey - Kisou
DYEAR=2002
DGENRE=Rock
TTITLE0=Kigan
TTITLE1=Zomboid
TTITLE2=24ko Cylinder
TTITLE3=Filth
TTITLE4=Bottom Of The Death Valley
TTITLE5=Embryo
TTITLE6=Shinsou
TTITLE7=Gyakujou Tannou Keloid Milk
TTITLE8=The Domestic Fucker Family
TTITLE9=Undecided
TTITLE10=Mush
TTITLE11=Shinsou
TTITLE12=Jessica
TTITLE13=Karasu
TTITLE14=Pink Killer
TTITLE15=Shinsou
EXTD=
EXTT0=
EXTT1=
EXTT2=
EXTT3=
EXTT4=
EXTT5=
EXTT6=
EXTT7=
EXTT8=
EXTT9=
EXTT10=
EXTT11=
EXTT12=
EXTT13=
EXTT14=
EXTT15=
PLAYORDER=
